<svg id="first" xmlns="http://www.w3.org/2000/svg" width="640" height="1136" viewBox="0 0 640 1136"><g id="up"><g id="XMLID_1557_" data-delay="10" data-duration="10"><path id="XMLID_1746_" d="M56.147 504.731c-1.325 9.94-1.988 57.654 3.976 66.931" fill="none" stroke="#040000" stroke-width="9" stroke-linecap="round" stroke-linejoin="round" stroke-miterlimit="10"/><path id="XMLID_1745_" d="M66.309 500.755s38.215-20.985 57.654-22.31" fill="none" stroke="#040000" stroke-width="9" stroke-linecap="round" stroke-linejoin="round" stroke-miterlimit="10"/><path id="XMLID_1744_" d="M87.515 471.155s17.364 51.383 31.367 65.385c5.743 5.743 7.068-2.651 7.068-2.651" fill="none" stroke="#040000" stroke-width="9" stroke-linecap="round" stroke-linejoin="round" stroke-miterlimit="10"/><path id="XMLID_1743_" d="M119.323 510.475c-4.418 2.209-17.229 26.507-17.229 26.507" fill="none" stroke="#040000" stroke-width="9" stroke-linecap="round" stroke-linejoin="round" stroke-miterlimit="10"/><path id="XMLID_1742_" fill="none" stroke="#040000" stroke-width="9" stroke-linecap="round" stroke-linejoin="round" stroke-miterlimit="10" d="M103.86 462.319l6.627.884"/><path id="XMLID_1741_" d="M63.438 529.25c7.068-5.301 28.495-14.358 25.402 4.639-3.889 23.888-18.996 21.206-22.09 18.997" fill="none" stroke="#040000" stroke-width="9" stroke-linecap="round" stroke-linejoin="round" stroke-miterlimit="10"/><path id="XMLID_1740_" d="M66.529 514.229s8.395-6.185 15.904-6.185" fill="none" stroke="#040000" stroke-width="9" stroke-linecap="round" stroke-linejoin="round" stroke-miterlimit="10"/><path id="XMLID_1739_" d="M77.956 567.36s-4.517 36.128 3.011 45.664c7.526 9.533 24.588 6.522 38.136-16.059" fill="none" stroke="#040000" stroke-width="9" stroke-linecap="round" stroke-linejoin="round" stroke-miterlimit="10"/><path id="XMLID_1738_" d="M61.449 586.242s-2.651 5.301-1.768 9.277" fill="none" stroke="#040000" stroke-width="9" stroke-linecap="round" stroke-linejoin="round" stroke-miterlimit="10"/><path id="XMLID_1737_" d="M97.676 561.722s4.418 12.812 3.977 20.323" fill="none" stroke="#040000" stroke-width="9" stroke-linecap="round" stroke-linejoin="round" stroke-miterlimit="10"/><path id="XMLID_1736_" d="M125.509 563.931s3.093 10.161 2.65 17.23" fill="none" stroke="#040000" stroke-width="9" stroke-linecap="round" stroke-linejoin="round" stroke-miterlimit="10"/></g><g id="XMLID_1747_" data-delay="1000" data-duration="10"><path id="XMLID_1735_" d="M144.506 502.522s8.836 30.483 11.045 33.134" fill="none" stroke="#040000" stroke-width="9" stroke-linecap="round" stroke-linejoin="round" stroke-miterlimit="10"/><path id="XMLID_1734_" d="M155.551 503.406s20.322-8.394 35.784-10.603c15.463-2.209 29.821 3.093 20.985 31.809" fill="none" stroke="#040000" stroke-width="9" stroke-linecap="round" stroke-linejoin="round" stroke-miterlimit="10"/><path id="XMLID_1733_" fill="none" stroke="#040000" stroke-width="9" stroke-linecap="round" stroke-linejoin="round" stroke-miterlimit="10" d="M158.864 468.946l7.289 18.555"/><path id="XMLID_1732_" fill="none" stroke="#040000" stroke-width="9" stroke-linecap="round" stroke-linejoin="round" stroke-miterlimit="10" d="M179 465.948v15"/><path id="XMLID_1731_" fill="none" stroke="#040000" stroke-width="9" stroke-linecap="round" stroke-linejoin="round" stroke-miterlimit="10" d="M205.252 463.645l-7.952 17.23"/><path id="XMLID_1730_" d="M168.804 543.167c-4.639-19.88-4.97-23.194 9.94-26.507 13.194-2.932 25.845-4.639 18.556 25.182" fill="none" stroke="#040000" stroke-width="9" stroke-linecap="round" stroke-linejoin="round" stroke-miterlimit="10"/><path id="XMLID_1729_" d="M176.756 550.236s-4.859 20.323-8.836 27.391" fill="none" stroke="#040000" stroke-width="9" stroke-linecap="round" stroke-linejoin="round" stroke-miterlimit="10"/><path id="XMLID_1728_" d="M182.5 537.866s1.767 19.88 3.313 29.158c1.524 9.151 5.301 11.707 18.334 7.953 13.69-3.945 18.918-4.602 14.138-12.15" fill="none" stroke="#040000" stroke-width="9" stroke-linecap="round" stroke-linejoin="round" stroke-miterlimit="10"/></g><g id="XMLID_1748_" data-delay="200" data-duration="10"><path id="XMLID_1727_" d="M237.724 506.94s5.743 29.6 4.418 49.039" fill="none" stroke="#040000" stroke-width="9" stroke-linecap="round" stroke-linejoin="round" stroke-miterlimit="10"/><path id="XMLID_1726_" d="M245.676 502.522c3.977-4.86 16.566-9.72 17.893 0 1.325 9.719 2.43 24.298 1.325 46.388" fill="none" stroke="#040000" stroke-width="9" stroke-linecap="round" stroke-linejoin="round" stroke-miterlimit="10"/><path id="XMLID_1725_" fill="none" stroke="#040000" stroke-width="9" stroke-linecap="round" stroke-linejoin="round" stroke-miterlimit="10" d="M249.431 515.334l5.743 1.326"/><path id="XMLID_1724_" fill="none" stroke="#040000" stroke-width="9" stroke-linecap="round" stroke-linejoin="round" stroke-miterlimit="10" d="M249.652 533.889l7.731-3.976"/><path id="XMLID_1723_" d="M284.995 492.803s10.603-7.51 27.391-10.603" fill="none" stroke="#040000" stroke-width="9" stroke-linecap="round" stroke-linejoin="round" stroke-miterlimit="10"/><path id="XMLID_1722_" d="M277.705 509.149s-1.104 18.997.221 29.158c1.326 10.161 1.547 12.812 14.359 11.045 12.812-1.767 20.984-1.767 24.077-4.86 3.093-3.092.884-6.626.884-6.626" fill="none" stroke="#040000" stroke-width="9" stroke-linecap="round" stroke-linejoin="round" stroke-miterlimit="10"/><path id="XMLID_1721_" d="M309.735 506.94s-20.765 20.764-22.974 28.717" fill="none" stroke="#040000" stroke-width="9" stroke-linecap="round" stroke-linejoin="round" stroke-miterlimit="10"/><path id="XMLID_1720_" d="M287.646 513.567s10.161 11.487 15.021 17.672" fill="none" stroke="#040000" stroke-width="9" stroke-linecap="round" stroke-linejoin="round" stroke-miterlimit="10"/></g><g id="XMLID_1749_" data-delay="300" data-duration="10"><path id="XMLID_1716_" d="M327.849 497.663s6.186-12.37 14.138-18.997" fill="none" stroke="#040000" stroke-width="9" stroke-linecap="round" stroke-linejoin="round" stroke-miterlimit="10"/><path id="XMLID_1710_" fill="none" stroke="#040000" stroke-width="9" stroke-linecap="round" stroke-linejoin="round" stroke-miterlimit="10" d="M353.914 486.397l16.567-2.43"/><path id="XMLID_1709_" d="M337.568 493.687s-.884 13.695 1.767 20.322" fill="none" stroke="#040000" stroke-width="9" stroke-linecap="round" stroke-linejoin="round" stroke-miterlimit="10"/><path id="XMLID_1708_" d="M360.762 475.131s-2.209 32.25.884 36.668 6.627-1.325 6.627-1.325" fill="none" stroke="#040000" stroke-width="9" stroke-linecap="round" stroke-linejoin="round" stroke-miterlimit="10"/><path id="XMLID_1707_" fill="none" stroke="#040000" stroke-width="9" stroke-linecap="round" stroke-linejoin="round" stroke-miterlimit="10" d="M370.923 471.155l3.534 3.976"/><path id="XMLID_1706_" fill="none" stroke="#040000" stroke-width="9" stroke-linecap="round" stroke-linejoin="round" stroke-miterlimit="10" d="M351.043 514.229l-.884 3.093"/><path id="XMLID_1705_" d="M334.697 528.809s22.089-5.743 29.6-5.301" fill="none" stroke="#040000" stroke-width="9" stroke-linecap="round" stroke-linejoin="round" stroke-miterlimit="10"/><path id="XMLID_1704_" d="M343.975 530.576s-6.186 19.88-1.768 26.507 6.185-.884 6.185-.884" fill="none" stroke="#040000" stroke-width="9" stroke-linecap="round" stroke-linejoin="round" stroke-miterlimit="10"/><path id="XMLID_1703_" d="M353.914 531.018s9.72 30.926 30.926 34.46" fill="none" stroke="#040000" stroke-width="9" stroke-linecap="round" stroke-linejoin="round" stroke-miterlimit="10"/><path id="XMLID_1702_" fill="none" stroke="#040000" stroke-width="9" stroke-linecap="round" stroke-linejoin="round" stroke-miterlimit="10" d="M381.747 544.271l-5.302 7.069"/><path id="XMLID_1701_" d="M345.741 531.018s-12.812 11.045-18.997 15.463" fill="none" stroke="#040000" stroke-width="9" stroke-linecap="round" stroke-linejoin="round" stroke-miterlimit="10"/></g><path id="XMLID_1717_" data-delay="1000" data-duration="10" d="M330.5 382.576c-1.326-8.836-8.395-19.881-15.904-22.532-7.511-2.65-25.183-.883-20.765 8.394 4.418 9.278 17.229 12.812 17.229 12.812" fill="none" stroke="#040000" stroke-width="9" stroke-linecap="round" stroke-linejoin="round" stroke-miterlimit="10"/><path id="XMLID_1718_" data-delay="1000" data-duration="10" d="M342.207 400.689s6.185 11.928 18.113 11.928 26.065-10.603 16.347-19.438c-7.526-6.842-22.311-.442-22.311-.442" fill="none" stroke="#040000" stroke-width="9" stroke-linecap="round" stroke-linejoin="round" stroke-miterlimit="10"/><path id="XMLID_1719_" data-delay="1000" data-duration="10" d="M293.609 475.352c-.441-6.185-9.719-51.689 38.878-80.848" fill="none" stroke="#040000" stroke-width="9" stroke-linecap="round" stroke-linejoin="round" stroke-miterlimit="10"/><g id="XMLID_1750_"><path id="XMLID_1700_" fill="none" stroke="#040000" stroke-width="9" stroke-linecap="round" stroke-linejoin="round" stroke-miterlimit="10" d="M410.464 470.934l1.104 8.836"/><path id="XMLID_1699_" d="M399.64 487.28c7.068 1.768 20.985 6.185 11.266 13.696-9.72 7.51-22.531 13.253-22.531 13.253" fill="none" stroke="#040000" stroke-width="9" stroke-linecap="round" stroke-linejoin="round" stroke-miterlimit="10"/><path id="XMLID_1698_" fill="none" stroke="#040000" stroke-width="9" stroke-linecap="round" stroke-linejoin="round" stroke-miterlimit="10" d="M394.117 542.504l8.395-26.066"/><path id="XMLID_1697_" d="M430.123 495.454s12.37 1.767 18.997 3.092c6.627 1.326 15.021 5.302-1.325 15.905" fill="none" stroke="#040000" stroke-width="9" stroke-linecap="round" stroke-linejoin="round" stroke-miterlimit="10"/><path id="XMLID_1696_" d="M424.38 505.173s-9.94 31.367-14.8 40.203" fill="none" stroke="#040000" stroke-width="9" stroke-linecap="round" stroke-linejoin="round" stroke-miterlimit="10"/><path id="XMLID_1695_" d="M428.355 525.937c7.512 3.093 21.207 4.418 11.93 14.579-9.278 10.161-22.09 15.905-22.09 15.905" fill="none" stroke="#040000" stroke-width="9" stroke-linecap="round" stroke-linejoin="round" stroke-miterlimit="10"/><path id="XMLID_1694_" d="M425.705 538.749s5.965 19.218 9.499 24.961" fill="none" stroke="#040000" stroke-width="9" stroke-linecap="round" stroke-linejoin="round" stroke-miterlimit="10"/><path id="XMLID_1693_" d="M448.457 475.794s-10.382 30.263-12.59 38.215" fill="none" stroke="#040000" stroke-width="9" stroke-linecap="round" stroke-linejoin="round" stroke-miterlimit="10"/><path id="XMLID_1692_" fill="none" stroke="#040000" stroke-width="9" stroke-linecap="round" stroke-linejoin="round" stroke-miterlimit="10" d="M407.371 504.068l4.859 4.86"/><path id="XMLID_1691_" fill="none" stroke="#040000" stroke-width="9" stroke-linecap="round" stroke-linejoin="round" stroke-miterlimit="10" d="M409.139 522.182l-5.743-10.161"/></g><g id="XMLID_1751_"><path id="XMLID_1690_" fill="none" stroke="#040000" stroke-width="9" stroke-linecap="round" stroke-linejoin="round" stroke-miterlimit="10" d="M469.222 513.125l19.438 3.093"/><path id="XMLID_1689_" fill="none" stroke="#040000" stroke-width="9" stroke-linecap="round" stroke-linejoin="round" stroke-miterlimit="10" d="M456.852 540.516l20.544-3.976"/><path id="XMLID_1688_" d="M482.033 500.755s-16.346 50.144-25.182 61.63" fill="none" stroke="#040000" stroke-width="9" stroke-linecap="round" stroke-linejoin="round" stroke-miterlimit="10"/><path id="XMLID_1687_" d="M515.168 508.708l-14.137 9.277s14.578 3.534 18.112 7.51c3.534 3.977 11.929 12.371 1.768 29.6-10.161 17.23-19.491 27.598-22.31 27.833-5.302.442-7.291-4.418-7.291-4.418" fill="none" stroke="#040000" stroke-width="9" stroke-linecap="round" stroke-linejoin="round" stroke-miterlimit="10"/><path id="XMLID_1686_" fill="none" stroke="#040000" stroke-width="9" stroke-linecap="round" stroke-linejoin="round" stroke-miterlimit="10" d="M499.705 530.355l-12.37 9.278 20.765.441"/><path id="XMLID_1685_" fill="none" stroke="#040000" stroke-width="9" stroke-linecap="round" stroke-linejoin="round" stroke-miterlimit="10" d="M487.777 552.003l14.358 1.767"/><path id="XMLID_1684_" fill="none" stroke="#040000" stroke-width="9" stroke-linecap="round" stroke-linejoin="round" stroke-miterlimit="10" d="M499.705 542.725l-8.836 17.009"/><path id="XMLID_1683_" d="M478.058 554.433c-3.534 5.743-8.836 16.126 20.322 13.475" fill="none" stroke="#040000" stroke-width="9" stroke-linecap="round" stroke-linejoin="round" stroke-miterlimit="10"/></g><g id="XMLID_1752_"><path id="XMLID_1682_" d="M543.664 529.25c-2.354 3.66-6.477 6.033.441 7.731 1.268.312 10.494 1.318 33.797 6.627 9.477 2.159 11.045 6.627 3.093 13.695" fill="none" stroke="#040000" stroke-width="9" stroke-linecap="round" stroke-linejoin="round" stroke-miterlimit="10"/><path id="XMLID_1681_" fill="none" stroke="#040000" stroke-width="9" stroke-linecap="round" stroke-linejoin="round" stroke-miterlimit="10" d="M563.766 526.158l3.755 6.627"/><path id="XMLID_1680_" fill="none" stroke="#040000" stroke-width="9" stroke-linecap="round" stroke-linejoin="round" stroke-miterlimit="10" d="M543.664 551.34l-9.277 5.743"/><path id="XMLID_1679_" d="M561.998 551.34c3.534 1.767 8.836 5.301 11.486 12.37" fill="none" stroke="#040000" stroke-width="9" stroke-linecap="round" stroke-linejoin="round" stroke-miterlimit="10"/><path id="XMLID_1678_" d="M541.013 565.919c1.325 0 20.543 1.104 21.869 7.731 1.325 6.627-19.218 14.801-19.218 14.801" fill="none" stroke="#040000" stroke-width="9" stroke-linecap="round" stroke-linejoin="round" stroke-miterlimit="10"/><path id="XMLID_1677_" d="M524.888 590.438s25.182 6.848 34.901 13.475" fill="none" stroke="#040000" stroke-width="9" stroke-linecap="round" stroke-linejoin="round" stroke-miterlimit="10"/></g></g><g id="down"><path id="XMLID_1755_" d="M99.5 648.948c54-29 202-86 398-50" fill="none" stroke="#040000" stroke-width="9" stroke-linecap="round" stroke-linejoin="round" stroke-miterlimit="10"/><path id="XMLID_1756_" d="M77.5 690.948s27.667-25.833 66.833-40" fill="none" stroke="#040000" stroke-width="9" stroke-linecap="round" stroke-linejoin="round" stroke-miterlimit="10"/><g id="XMLID_1646_"><path id="XMLID_1676_" d="M203.52 632.062c9.188 17.61 12.227 63.428 14.531 74.186" fill="none" stroke="#040000" stroke-width="9" stroke-linecap="round" stroke-linejoin="round" stroke-miterlimit="10"/><path id="XMLID_1655_" fill="none" stroke="#040000" stroke-width="9" stroke-linecap="round" stroke-linejoin="round" stroke-miterlimit="10" d="M198.932 673.361l-2.295 6.883"/><path id="XMLID_1654_" fill="none" stroke="#040000" stroke-width="9" stroke-linecap="round" stroke-linejoin="round" stroke-miterlimit="10" d="M221.875 661.125l4.589 9.177"/><path id="XMLID_1653_" d="M232.582 654.857s20.691-17.242 30.175-12.932c8.348 3.794 2.587 14.656-4.31 19.829s-18.968 12.069-18.968 12.069 18.968-6.896 31.037-5.172" fill="none" stroke="#040000" stroke-width="9" stroke-linecap="round" stroke-linejoin="round" stroke-miterlimit="10"/><path id="XMLID_1652_" d="M252.31 632.062c-3.448 10.92-9.961 48.084-7.087 64.752" fill="none" stroke="#040000" stroke-width="9" stroke-linecap="round" stroke-linejoin="round" stroke-miterlimit="10"/><path id="XMLID_1651_" fill="none" stroke="#040000" stroke-width="9" stroke-linecap="round" stroke-linejoin="round" stroke-miterlimit="10" d="M261.316 686.09l9.771 8.621"/></g><g id="XMLID_1632_"><path id="XMLID_1645_" d="M286.912 631.367s28.27-9.927 40.785-9.495" fill="none" stroke="#040000" stroke-width="9" stroke-linecap="round" stroke-linejoin="round" stroke-miterlimit="10"/><path id="XMLID_1644_" d="M289.717 643.884c1.727 1.726 4.101 2.374 6.689 3.669" fill="none" stroke="#040000" stroke-width="9" stroke-linecap="round" stroke-linejoin="round" stroke-miterlimit="10"/><path id="XMLID_1643_" d="M329.424 635.684s-3.669 5.826-6.258 8.416" fill="none" stroke="#040000" stroke-width="9" stroke-linecap="round" stroke-linejoin="round" stroke-miterlimit="10"/><path id="XMLID_1642_" d="M283.891 669.348s44.238-10.79 49.85-10.79c5.61 0 7.121-2.806 7.121-2.806" fill="none" stroke="#040000" stroke-width="9" stroke-linecap="round" stroke-linejoin="round" stroke-miterlimit="10"/><path id="XMLID_1636_" d="M308.06 612.809s7.338 71.645 9.063 84.161" fill="none" stroke="#040000" stroke-width="9" stroke-linecap="round" stroke-linejoin="round" stroke-miterlimit="10"/><path id="XMLID_1635_" fill="none" stroke="#040000" stroke-width="9" stroke-linecap="round" stroke-linejoin="round" stroke-miterlimit="10" d="M299.428 679.706l-3.668 6.474"/><path id="XMLID_1634_" fill="none" stroke="#040000" stroke-width="9" stroke-linecap="round" stroke-linejoin="round" stroke-miterlimit="10" d="M330.503 674.742l11.222 5.612"/></g><g id="XMLID_1588_"><path id="XMLID_1626_" fill="none" stroke="#040000" stroke-width="9" stroke-linecap="round" stroke-linejoin="round" stroke-miterlimit="10" d="M358.774 623.854l5.964 8.615"/><path id="XMLID_1625_" d="M353.693 639.316s7.511 9.277 10.161 13.695c2.651 4.418-8.394 12.812-8.836 18.555-.441 5.744 12.812 18.998 12.812 18.998" fill="none" stroke="#040000" stroke-width="9" stroke-linecap="round" stroke-linejoin="round" stroke-miterlimit="10"/><path id="XMLID_1624_" fill="none" stroke="#040000" stroke-width="9" stroke-linecap="round" stroke-linejoin="round" stroke-miterlimit="10" d="M374.016 626.504l40.423-9.498"/><path id="XMLID_1623_" fill="none" stroke="#040000" stroke-width="9" stroke-linecap="round" stroke-linejoin="round" stroke-miterlimit="10" d="M380.643 615.459l4.859 13.033"/><path id="XMLID_1622_" fill="none" stroke="#040000" stroke-width="9" stroke-linecap="round" stroke-linejoin="round" stroke-miterlimit="10" d="M401.849 608.832l-.221 13.475"/><path id="XMLID_1620_" d="M379.317 636.224c-2.65 3.093-5.743 7.952-1.767 11.045 3.976 3.093 14.578 4.196 15.462-1.546.884-5.744-5.522-7.511-5.522-7.511" fill="none" stroke="#040000" stroke-width="9" stroke-linecap="round" stroke-linejoin="round" stroke-miterlimit="10"/><path id="XMLID_1619_" d="M402.29 631.363s-3.092 3.535-2.65 7.512c.442 3.976 3.534 6.185 9.278 6.185 5.742 0 9.719-3.534 9.719-7.952s-8.615-5.302-8.615-5.302" fill="none" stroke="#040000" stroke-width="9" stroke-linecap="round" stroke-linejoin="round" stroke-miterlimit="10"/><path id="XMLID_1618_" fill="none" stroke="#040000" stroke-width="9" stroke-linecap="round" stroke-linejoin="round" stroke-miterlimit="10" d="M382.41 657.871l-10.824 9.057"/><path id="XMLID_1617_" d="M377.551 665.603s.662 18.556 4.196 23.856" fill="none" stroke="#040000" stroke-width="9" stroke-linecap="round" stroke-linejoin="round" stroke-miterlimit="10"/><path id="XMLID_1616_" fill="none" stroke="#040000" stroke-width="9" stroke-linecap="round" stroke-linejoin="round" stroke-miterlimit="10" d="M401.407 652.57l4.417 3.534-.441 31.368"/><path id="XMLID_1592_" d="M389.479 661.406s24.299-5.965 30.926-5.081" fill="none" stroke="#040000" stroke-width="9" stroke-linecap="round" stroke-linejoin="round" stroke-miterlimit="10"/><path id="XMLID_1591_" d="M392.129 670.684c10.604-2.209 19.137-1.768 24.52-1.768" fill="none" stroke="#040000" stroke-width="9" stroke-linecap="round" stroke-linejoin="round" stroke-miterlimit="10"/><path id="XMLID_1590_" fill="none" stroke="#040000" stroke-width="9" stroke-linecap="round" stroke-linejoin="round" stroke-miterlimit="10" d="M391.688 679.961l24.298-.662"/><path id="XMLID_1589_" fill="none" stroke="#040000" stroke-width="9" stroke-linecap="round" stroke-linejoin="round" stroke-miterlimit="10" d="M391.688 689.238l28.275.221"/></g><g id="XMLID_1558_"><path id="XMLID_1579_" fill="none" stroke="#040000" stroke-width="9" stroke-linecap="round" stroke-linejoin="round" stroke-miterlimit="10" d="M438.518 626.504l10.602 6.627"/><path id="XMLID_1578_" d="M437.634 645.943s8.836 3.976 9.72 11.486c.883 7.51-8.395 14.579-9.278 19.438-.883 4.86 5.302 15.021 5.302 15.021" fill="none" stroke="#040000" stroke-width="9" stroke-linecap="round" stroke-linejoin="round" stroke-miterlimit="10"/><path id="XMLID_1574_" d="M465.908 635.34s25.402-.662 33.797 1.547" fill="none" stroke="#040000" stroke-width="9" stroke-linecap="round" stroke-linejoin="round" stroke-miterlimit="10"/><path id="XMLID_1573_" fill="none" stroke="#040000" stroke-width="9" stroke-linecap="round" stroke-linejoin="round" stroke-miterlimit="10" d="M470.326 623.854l2.209 18.554"/><path id="XMLID_1572_" fill="none" stroke="#040000" stroke-width="9" stroke-linecap="round" stroke-linejoin="round" stroke-miterlimit="10" d="M494.184 625.179l-5.302 17.229"/><path id="XMLID_1569_" d="M463.258 651.244s26.508-1.325 35.344 0" fill="none" stroke="#040000" stroke-width="9" stroke-linecap="round" stroke-linejoin="round" stroke-miterlimit="10"/><path id="XMLID_1568_" d="M458.177 662.952s-1.767 21.206 1.768 26.065" fill="none" stroke="#040000" stroke-width="9" stroke-linecap="round" stroke-linejoin="round" stroke-miterlimit="10"/><path id="XMLID_1567_" d="M467.676 663.615s12.389-.57 25.182 1.324c11.929 1.768 6.186 18.777-1.325 29.38" fill="none" stroke="#040000" stroke-width="9" stroke-linecap="round" stroke-linejoin="round" stroke-miterlimit="10"/><path id="XMLID_1566_" fill="none" stroke="#040000" stroke-width="9" stroke-linecap="round" stroke-linejoin="round" stroke-miterlimit="10" d="M475.628 656.546l-11.929 22.974"/><path id="XMLID_1565_" fill="none" stroke="#040000" stroke-width="9" stroke-linecap="round" stroke-linejoin="round" stroke-miterlimit="10" d="M473.86 677.752l-6.184-5.743"/><path id="XMLID_1560_" fill="none" stroke="#040000" stroke-width="9" stroke-linecap="round" stroke-linejoin="round" stroke-miterlimit="10" d="M493.3 660.964l-11.488 19.438"/><path id="XMLID_1559_" fill="none" stroke="#040000" stroke-width="9" stroke-linecap="round" stroke-linejoin="round" stroke-miterlimit="10" d="M492.416 679.299l-5.743-5.524"/></g></g><g id="caojun"><path id="XMLID_1754_" d="M254.489 733.906c-10.152 3.867-17.696 18.916-11.594 29.289s6.103 20.137 22.577 20.747c16.476.61 89.032-7.323 118.379-7.323 34.781 0 38.522-24.453 39.053-27.459 1.831-10.373-10.373-25.018-21.357-26.848-10.982-1.831-80.546-.611-98.852 2.44-18.306 3.052-35.391 4.272-48.206 9.154z" fill="#040000"/><g id="XMLID_2541_"><path id="XMLID_2542_" d="M258.612 767.31l-3.143-.851a235.703 235.703 0 0 0 4.224-16.23c-1.371.08-2.629.152-3.77.217l-.006-3.094c1.727.132 3.445.146 5.159.048-.052-.913-.193-2.337-.417-4.273-.105-1.826-.242-3.194-.408-4.103l3.427-.197c.049 2.863.156 5.723.32 8.577.344-.021.914-.053 1.714-.099.92.062 1.609.078 2.066.053l-.175 2.933c-.35-.093-.926-.118-1.724-.073-.807-.066-1.439-.089-1.894-.062l.325 5.654a50.099 50.099 0 0 0 4.984 2.979l-1.909 2.688a24.479 24.479 0 0 0-2.698-2.079c.099 1.713.3 4.225.605 7.528l.404 7.025-3.074.349a270.41 270.41 0 0 0-1.104-19.189 433.823 433.823 0 0 1-1.369 6.096 251.447 251.447 0 0 1-1.537 6.103zm12.578-23.415l2.296 1.072a8.067 8.067 0 0 1 1.532-.261l-.118-2.056c-2.057.118-4.108.295-6.158.525l-.177-3.084 2.912-.167c1.489.03 2.58.023 3.266-.016a28.259 28.259 0 0 0-.35-3.075l3.085-.178.188 3.256 2.741-.158-.099-1.713c-.162-.791-.251-1.36-.271-1.703l2.912-.168.197 3.427 6.169-.354-.166 3.104a51.824 51.824 0 0 0-6.016.003l.079 1.37c5.031-.174 7.561 1.973 7.59 6.439.46 6.05-3.937 9.281-13.193 9.698-6.044.579-9.025-1.484-8.952-6.189-.228-3.997.614-7.255 2.533-9.772zm.433 16.478l3 1.374c2.36-.823 4.966-1.317 7.823-1.481 5.14-.295 7.82 1.5 8.044 5.383-.06 4.929-3.51 7.706-10.35 8.33-6.854.395-10.411-1.695-10.674-6.262-.118-2.057.6-4.504 2.157-7.344zm4.106-3.331l-.227-3.94-3.77.217.029.514c.01 2.177 1.332 3.248 3.968 3.209zm-.395-6.854l-.147-2.569c-.23.014-.683.098-1.361.25a12.38 12.38 0 0 0-1.352.422c-.075.691-.213 1.274-.415 1.742.343-.02.918.006 1.724.072.685-.039 1.202-.009 1.551.083zm8.97 15.472l-.177 2.932c-3.668-.017-7.386.082-11.156.299.784 1.674 3.004 2.406 6.66 2.195 5.238-.533 7.896-2.174 7.967-4.928-.348-2.043-1.894-3.042-4.641-2.999-2.972.171-6.254.875-9.85 2.113.007.115-.049.175-.162.181-.108.122-.151.354-.132.695 3.89-.107 7.721-.271 11.491-.488zm-3.749-23.336l-2.913.168.099 1.714 2.903-.339-.089-1.543zm.453 7.882l-.196-3.427-1.371.079c-.68.154-1.189.24-1.532.26l.177 3.084c1.026-.059 2-.056 2.922.004zm.193 6.35l-.197-3.427-1.199.069c-.692-.073-1.209-.103-1.552-.083.02.343.112.969.28 1.875l.108 1.885a18.188 18.188 0 0 0 2.56-.319zm4.443-6.445l.006 3.094a11.722 11.722 0 0 0-1.894-.062l.158 2.741c2.694-.955 3.908-2.744 3.645-5.367-.046-2.747-1.437-4.042-4.177-3.885l.196 3.427c.692.076 1.381.091 2.066.052z" fill="#fff"/><path id="XMLID_2568_" d="M300.016 753.754l-.188-3.256c.228-.012.518.03.866.123 1.27.158 2.188.218 2.761.185.094-.349.295-.876.598-1.581.188-.699.329-1.223.425-1.572-1.937.227-4.496.547-7.681.958-1.021.175-1.763.272-2.217.3l-.35-3.074c2.956-.398 6.601-.78 10.937-1.145.092-.35.234-.873.425-1.572.277-1.16.513-2.033.709-2.619-1.814.336-4.128.984-6.936 1.945l-.844-2.701c3.697-1.473 9.135-2.588 16.312-3.345 5.925-.569 8.963 1.435 9.112 6.009 1.812-.333 3.403-.598 4.768-.791l.178 3.084c-.452.143-1.249.244-2.389.309-1.022.175-1.819.277-2.39.311.092 5.611-3.866 8.532-11.872 8.762a63.462 63.462 0 0 1-6.36.022c-2.241 6.893-4.222 12.276-5.946 16.157l-3.153-1.021c1.946-4.008 3.888-9.104 5.825-15.291-1.029.057-1.891-.006-2.59-.197zm6.586 3.919l2.447.72c4.054-1.266 7.049-1.953 8.992-2.065 5.253-.302 8.004 1.662 8.246 5.886.296 5.141-3.898 7.96-12.578 8.459-6.055.349-9.148-1.651-9.283-5.998-.052-2.861.673-5.196 2.176-7.002zm13.922-11.975c-1.259.072-3.249.302-5.978.688-2.965.286-5.126.526-6.49.718-.096.35-.287.992-.577 1.924-.184.813-.376 1.456-.577 1.924a99.201 99.201 0 0 0 5.493-.144c5.147-.181 7.856-1.884 8.129-5.11zm-2.295 13.884a35.94 35.94 0 0 0-9.667 2.275 9.745 9.745 0 0 0-.338 3.114c.018 2.293 1.794 3.278 5.328 2.96 6.047-.461 9.099-2.184 9.158-5.169-.026-2.405-1.519-3.463-4.481-3.18zm-9.303-15.279c1.25-.185 3.181-.468 5.796-.85 2.62-.263 4.555-.49 5.807-.678-.273-2.734-2.062-3.947-5.367-3.645-.915.053-2.622.266-5.12.639a48.55 48.55 0 0 1-1.116 4.534z" fill="#fff"/><path id="XMLID_2574_" d="M338.541 768.041l-3.427.197-.887-15.42c-.224-3.883-.456-6.906-.693-9.072l3.255-.187.157 2.741c3.401-2.603 5.273-4.944 5.612-7.027-.032-.57-.45-.833-1.248-.787-1.485.086-4.133.926-7.935 2.52l-1.559-3.177c3.81-1.479 6.916-2.289 9.315-2.427 3.196-.184 4.866.923 5.004 3.322.132 2.285-1.496 4.898-4.878 7.844 2.906.752 4.64 1.968 5.196 3.655a313.336 313.336 0 0 0 7.474-4.556c-.472-.201-1.229-.445-2.277-.729a253.02 253.02 0 0 1-1.57-.426l1.203-2.991a102.9 102.9 0 0 1 5.619 2.083c2.407-1.971 3.583-3.473 3.523-4.5-.039-.686-.632-.995-1.772-.93-1.144.066-2.767.734-4.87 1.999l-1.348-2.501c-.103.236-.312.534-.637.896a206.031 206.031 0 0 1-3.512 4.672l-2.517-1.918a103.577 103.577 0 0 0 7.33-10.049l2.697 2.08a33.347 33.347 0 0 1-2.564 3.241c1.896-.909 3.757-1.419 5.585-1.524 3.312-.19 5.102 1.025 5.368 3.645.105 1.829-1.154 3.849-3.777 6.062 1.288.5 3.334 1.184 6.134 2.055 1.51.371 2.676.705 3.496 1.001l-1.364 3.173c-4.225-1.704-7.911-3.039-11.062-4.005-2.092 1.495-4.912 3.265-8.461 5.3 1.269.158 3.11.28 5.521.37.229-.013.398-.022.515-.03l-.197-3.426 3.256-.188a44.915 44.915 0 0 0 .045 3.779c2.188.218 4.373.323 6.551.311l-.347 2.942-.515.03c-1.607-.021-3.446-.146-5.521-.371.125 2.172.302 4.281.536 6.33.111-.006.28-.072.504-.201 2.821-.734 4.787-1.42 5.898-2.059l1.033 3.035c-1.446.771-3.861 1.598-7.248 2.48.02.342.114 1.023.288 2.046l.118 2.056-3.426.197-.217-3.77a11.45 11.45 0 0 1-1.876.279c-4.232.131-6.589-.996-7.069-3.374.021-1.605.884-3.546 2.587-5.821l2.859 1.898c-1.291 1.448-1.917 2.516-1.878 3.201.267.672 1.315.956 3.145.851.912-.052 1.594-.147 2.045-.289l-.394-6.854a55.774 55.774 0 0 0-6.188.013l-.188-3.256c-.108.121-.33.25-.666.382-.23.013-.563.204-.999.573l-.554-.656c-.481 3.582-2.547 5.535-6.195 5.857a13.328 13.328 0 0 1-2.932-.175c.202 3.432.498 6.623.899 9.58zm4.918-16.098c-.214-1.707-2.326-2.559-6.335-2.559-.004 1.95.111 3.947.345 5.997 1.154.165 2.246.214 3.275.155 1.82-.216 2.725-1.416 2.715-3.593z" fill="#fff"/><path id="XMLID_2577_" d="M401.755 756.152l-3.759.389-.109-1.885c-2.016.804-4.339 1.281-6.966 1.433-3.084.177-4.786-1.5-5.103-5.036-.079-1.37-.017-3.265.188-5.684-1.713.1-3.37.194-4.968.287-.52 4.957-.727 8.293-.629 10.006.065 5.153 2.722 7.466 7.963 6.934 6.617-.493 12.221-1.676 16.814-3.546l.701 3.226c-4.833 1.653-10.326 2.77-16.481 3.355-8.428.941-12.618-2.197-12.574-9.42-.065-1.14.082-4.529.445-10.168l-5.825.336.136-3.618c1.721.017 3.721-.042 6.007-.173.08-.577.202-1.443.366-2.6.231-1.961.438-3.292.63-3.99l3.647.649c-.265 1.39-.553 3.357-.864 5.894l4.797-.275c.351-5.865.665-9.377.941-10.54l3.637.479c-.526 2.78-.913 6.069-1.151 9.864 2.512-.145 4.97-.285 7.368-.424-.312-3.42-.678-6.777-1.096-10.079l3.578-.55c.229 4 .483 7.424.763 10.271 3.881-.224 6.448-.428 7.7-.616l-.145 3.447-7.368.424c.564 5.812 1.015 9.684 1.357 11.61zm-4.44-11.433l-7.881.454c-.118 1.956-.137 3.618-.058 4.988.099 1.713.945 2.524 2.546 2.432 1.826-.104 3.751-.56 5.768-1.362l-.375-6.512z" fill="#fff"/></g></g></svg>